PathFileType	4	(X/Y/Z)	RBDS08static.trc
DataRate	CameraRate	NumFrames	NumMarkers	Units	OrigDataRate	OrigDataStartFrame	OrigNumFrames
150.000000	150.000000	4	48	mm	150.000000	131	150
Frame#	Time	L.Ankle			L.Ankle.Medial			L.ASIS			L.GTR			L.Heel.Bottom			L.Heel.Lateral			L.Heel.Top			L.HF			L.Iliac.Crest			L.Knee			L.Knee.Medial			L.MT1			L.MT2			L.MT5			L.PSIS			L.Shank.Bottom.Lateral			L.Shank.Bottom.Medial			L.Shank.Top.Lateral			L.Shank.Top.Medial			L.Thigh.Bottom.Lateral			L.Thigh.Bottom.Medial			L.Thigh.Top.Lateral			L.Thigh.Top.Medial			L.TT			R.Ankle			R.Ankle.Medial			R.ASIS			R.GTR			R.Heel.Bottom			R.Heel.Lateral			R.Heel.Top			R.HF			R.Iliac.Crest			R.Knee			R.Knee.Medial			R.MT1			R.MT2			R.MT5			R.PSIS			R.Shank.Bottom.Lateral			R.Shank.Bottom.Medial			R.Shank.Top.Lateral			R.Shank.Top.Medial			R.Thigh.Bottom.Lateral			R.Thigh.Bottom.Medial			R.Thigh.Top.Lateral			R.Thigh.Top.Medial			R.TT			
		X1	Y1	Z1	X2	Y2	Z2	X3	Y3	Z3	X4	Y4	Z4	X5	Y5	Z5	X6	Y6	Z6	X7	Y7	Z7	X8	Y8	Z8	X9	Y9	Z9	X10	Y10	Z10	X11	Y11	Z11	X12	Y12	Z12	X13	Y13	Z13	X14	Y14	Z14	X15	Y15	Z15	X16	Y16	Z16	X17	Y17	Z17	X18	Y18	Z18	X19	Y19	Z19	X20	Y20	Z20	X21	Y21	Z21	X22	Y22	Z22	X23	Y23	Z23	X24	Y24	Z24	X25	Y25	Z25	X26	Y26	Z26	X27	Y27	Z27	X28	Y28	Z28	X29	Y29	Z29	X30	Y30	Z30	X31	Y31	Z31	X32	Y32	Z32	X33	Y33	Z33	X34	Y34	Z34	X35	Y35	Z35	X36	Y36	Z36	X37	Y37	Z37	X38	Y38	Z38	X39	Y39	Z39	X40	Y40	Z40	X41	Y41	Z41	X42	Y42	Z42	X43	Y43	Z43	X44	Y44	Z44	X45	Y45	Z45	X46	Y46	Z46	X47	Y47	Z47	X48	Y48	Z48	

132	0.8733333333333334	756.7163696289063	103.3644027709961	1047.038330078125	774.2682495117188	108.3774490356445	1131.43310546875	901.8800048828125	1042.512451171875	1111.328735351563	832.4207763671875	938.9237670898438	1050.121826171875	671.0272827148438	44.91402053833008	1081.1650390625	702.1666259765625	63.28113174438477	1036.992797851563	685.3655395507813	94.76464080810547	1086.135009765625	787.2376098632813	480.7625427246094	1032.192993164063	828.4830322265625	1104.82568359375	1082.5576171875	792.0320434570313	540.1177368164063	1039.12890625	780.6679077148438	522.5221557617188	1152.232299804688	899.6983032226563	62.02046203613281	1116.507080078125	903.2813110351563	67.02057647705078	1075.317260742188	861.0821533203125	50.45215225219727	1009.415588378906	731.9652099609375	1059.446166992188	1182.215576171875	745.10986328125	176.5802459716797	1038.405151367188	707.106201171875	177.341796875	1073.79638671875	740.1423950195313	256.5412902832031	1026.737670898438	704.815673828125	261.8164367675781	1066.703857421875	801.409912109375	674.8960571289063	1023.1650390625	742.8363037109375	669.523681640625	1066.746215820313	794.7694091796875	785.3021850585938	1030.351684570313	742.2555541992188	779.6455688476563	1076.999267578125	836.5259399414063	453.3083190917969	1080.611206054688	737.1287841796875	108.3815612792969	1407.49560546875	762.775390625	114.8859329223633	1323.9765625	908.8596801757813	1038.619873046875	1347.249389648438	835.1373291015625	944.4219360351563	1405.497924804688	657.808349609375	43.90790557861328	1371.130493164063	685.7031860351563	61.03606414794922	1412.822509765625	669.017333984375	93.17993927001953	1369.076049804688	771.4208984375	487.2549133300781	1433.40966796875	840.2617797851563	1097.100219726563	1379.429077148438	775.442626953125	543.2202758789063	1426.954833984375	764.5449829101563	522.07373046875	1314.258544921875	884.4944458007813	60.73799896240234	1330.51904296875	890.8987426757813	68.71275329589844	1376.72802734375	852.4771728515625	56.64136123657227	1436.827026367188	735.0863647460938	1060.538330078125	1285.360229492188	716.7838134765625	192.1836853027344	1418.727294921875	690.2764282226563	196.340087890625	1369.885620117188	707.8394775390625	272.6518859863281	1427.048461914063	686.5850830078125	275.90185546875	1377.534912109375	791.6683959960938	652.642578125	1436.864501953125	732.084228515625	654.5855712890625	1393.36083984375	794.1895751953125	763.1531982421875	1434.859985351563	739.04931640625	764.5060424804688	1392.883911132813	819.0244140625	461.074462890625	1386.204223632813	
133	0.88	756.717529296875	103.3557662963867	1047.028930664063	774.2660522460938	108.3726119995117	1131.44091796875	901.863525390625	1042.515747070313	1111.332641601563	832.399169921875	938.929443359375	1050.123168945313	671.0296020507813	44.90794372558594	1081.162963867188	702.1644287109375	63.28004455566406	1036.996948242188	685.3643798828125	94.7552490234375	1086.1376953125	787.232666015625	480.7670288085938	1032.197143554688	828.4428100585938	1104.823974609375	1082.561401367188	792.0261840820313	540.1218872070313	1039.117065429688	780.6740112304688	522.5140380859375	1152.23095703125	899.7005004882813	62.03078842163086	1116.52294921875	903.2754516601563	67.02019500732422	1075.324951171875	861.0792236328125	50.44850921630859	1009.4169921875	731.9362182617188	1059.434326171875	1182.219970703125	745.10546875	176.5797882080078	1038.403564453125	707.105224609375	177.3395843505859	1073.799072265625	740.1407470703125	256.5418395996094	1026.738037109375	704.8070678710938	261.8114013671875	1066.704833984375	801.4055786132813	674.8936157226563	1023.171020507813	742.8155517578125	669.5205688476563	1066.746948242188	794.7564697265625	785.3011474609375	1030.352172851563	742.2391967773438	779.646728515625	1076.995971679688	836.5209350585938	453.3111267089844	1080.6220703125	737.1266479492188	108.3652267456055	1407.496459960938	762.7788696289063	114.8986434936523	1323.994140625	908.8475341796875	1038.635375976563	1347.252197265625	835.1236572265625	944.4244384765625	1405.508056640625	657.79833984375	43.90444564819336	1371.133544921875	685.6967163085938	61.03203964233398	1412.823486328125	669.0167236328125	93.18880462646484	1369.082763671875	771.4200439453125	487.2510986328125	1433.419555664063	840.2445068359375	1097.110473632813	1379.4306640625	775.4421997070313	543.2177734375	1426.948364257813	764.5589599609375	522.074462890625	1314.257446289063	884.5034790039063	60.73090362548828	1330.51611328125	890.8936157226563	68.71649169921875	1376.73046875	852.4694213867188	56.64433670043945	1436.831665039063	735.0658569335938	1060.516235351563	1285.373046875	716.78369140625	192.1788940429688	1418.731567382813	690.281494140625	196.3347015380859	1369.889038085938	707.8395385742188	272.6524353027344	1427.046142578125	686.5786743164063	275.89013671875	1377.536865234375	791.6744995117188	652.6414184570313	1436.871948242188	732.0816040039063	654.587158203125	1393.357177734375	794.1809692382813	763.154052734375	1434.857299804688	739.0375366210938	764.5047607421875	1392.88671875	819.0435180664063	461.05908203125	1386.186401367188	
134	0.8866666666666667	756.7099609375	103.3648834228516	1047.027954101563	774.2539672851563	108.387451171875	1131.430297851563	901.832275390625	1042.5146484375	1111.332153320313	832.3817749023438	938.92724609375	1050.126831054688	671.0238037109375	44.90728378295898	1081.167114257813	702.1624145507813	63.276123046875	1036.995483398438	685.3550415039063	94.75752258300781	1086.128051757813	787.23095703125	480.7538146972656	1032.1953125	828.3986206054688	1104.8154296875	1082.565063476563	792.0263671875	540.1207885742188	1039.1240234375	780.6788940429688	522.5096435546875	1152.235473632813	900.2545776367188	62.61326217651367	1116.451171875	903.274169921875	67.01046752929688	1075.312866210938	861.0877685546875	50.45448303222656	1009.4189453125	731.9143676757813	1059.424682617188	1182.231811523438	745.1017456054688	176.570556640625	1038.408203125	707.1063232421875	177.3335571289063	1073.800903320313	740.1332397460938	256.5415954589844	1026.739379882813	704.810791015625	261.8037719726563	1066.705810546875	801.3807983398438	674.894775390625	1023.177307128906	742.8087158203125	669.5228881835938	1066.758544921875	794.7392578125	785.298095703125	1030.359252929688	742.2335205078125	779.6436767578125	1077.002685546875	836.5120849609375	453.3040466308594	1080.62060546875	737.1220703125	108.379020690918	1407.4990234375	762.7816772460938	114.8906860351563	1323.977294921875	908.8350830078125	1038.642578125	1347.258911132813	835.1109619140625	944.4276733398438	1405.518188476563	657.8001708984375	43.90581893920898	1371.131225585938	685.698486328125	61.02942276000977	1412.82763671875	669.01416015625	93.17953491210938	1369.089111328125	771.4219970703125	487.251953125	1433.4130859375	840.2259521484375	1097.111206054688	1379.4423828125	775.4505615234375	543.2207641601563	1426.9560546875	764.5564575195313	522.0701904296875	1314.257080078125	884.4835815429688	60.7372932434082	1330.51123046875	890.8973388671875	68.71900177001953	1376.728149414063	852.467529296875	56.65226745605469	1436.843505859375	735.0510864257813	1060.51220703125	1285.38818359375	716.7816772460938	192.1737365722656	1418.731079101563	690.2682495117188	196.3390350341797	1369.889038085938	707.8412475585938	272.6476135253906	1427.05322265625	686.57275390625	275.8884887695313	1377.526733398438	791.6755981445313	652.6426391601563	1436.8779296875	732.085205078125	654.58251953125	1393.362670898438	794.1786499023438	763.1571044921875	1434.861450195313	739.0401611328125	764.49658203125	1392.887084960938	819.0478515625	461.0481262207031	1386.18017578125	
135	0.8933333333333334	756.70751953125	103.3639068603516	1047.031005859375	774.2576904296875	108.4073104858398	1131.404418945313	901.7897338867188	1042.520629882813	1111.336303710938	832.3477783203125	938.932373046875	1050.126831054688	671.0277099609375	44.90669250488281	1081.170288085938	702.1588134765625	63.28500366210938	1036.985107421875	685.36279296875	94.7508544921875	1086.134765625	787.2137451171875	480.761474609375	1032.193237304688	828.3626098632813	1104.814208984375	1082.571411132813	792.01904296875	540.1195678710938	1039.125366210938	780.6622924804688	522.5151977539063	1152.239013671875	899.6900634765625	62.02310180664063	1116.511108398438	903.2722778320313	67.01469421386719	1075.322387695313	861.0852661132813	50.45271301269531	1009.413818359375	731.88427734375	1059.405639648438	1182.23974609375	745.0985107421875	176.5749969482422	1038.409301757813	707.1022338867188	177.3410034179688	1073.795043945313	740.1350708007813	256.5364990234375	1026.74169921875	704.8067626953125	261.8046875	1066.709716796875	801.3699340820313	674.89794921875	1023.175659179688	742.798583984375	669.5109252929688	1066.755615234375	794.7171020507813	785.3046264648438	1030.358764648438	742.2156372070313	779.6410522460938	1077.003662109375	836.5076293945313	453.3013610839844	1080.625	737.1126708984375	108.3835525512695	1407.504760742188	762.7730712890625	114.8935470581055	1323.988037109375	908.8167724609375	1038.64453125	1347.259521484375	835.0988159179688	944.4284057617188	1405.530395507813	657.7935180664063	43.89572525024414	1371.130126953125	685.69189453125	61.03711318969727	1412.825561523438	669.0121459960938	93.18797302246094	1369.087158203125	771.421142578125	487.2497253417969	1433.41259765625	840.2013549804688	1097.106201171875	1379.449340820313	775.446044921875	543.2119140625	1426.963989257813	764.54248046875	522.0798950195313	1314.257568359375	884.4946899414063	60.738525390625	1330.521484375	890.889892578125	68.72282409667969	1376.731689453125	852.4642333984375	56.64868927001953	1436.84033203125	735.02880859375	1060.498046875	1285.406494140625	716.7758178710938	192.1807861328125	1418.735595703125	690.2745971679688	196.3295745849609	1369.87841796875	707.841552734375	272.6422119140625	1427.052734375	686.575439453125	275.8830871582031	1377.538696289063	791.676025390625	652.6439819335938	1436.881591796875	732.0869140625	654.5757446289063	1393.360473632813	794.180419921875	763.1463012695313	1434.862060546875	739.0390625	764.4943237304688	1392.885864257813	819.0534057617188	461.0459289550781	1386.179931640625	
